# xmcd
#
# Track frame offsets:
#	150
#	21446
#	39038
#	55185
#	71410
#	86451
#	108332
#	126347
#	141956
#	161787
#
# Disc length: 2412 seconds
#
# Revision: 0
# Processed by: cddbd v1.5.2PL0 Copyright (c) Steve Scherf et al.
# Submitted via: EasyCDDAExtractor 11.5.3.1
#
DISCID=83096a0a
DTITLE=JT and The Clouds - Caledonia
DYEAR=2010
DGENRE=Indie
TTITLE0=Fever dream
TTITLE1=Funeral
TTITLE2=Low July
TTITLE3=I have heard words
TTITLE4=Playin' dozens
TTITLE5=How it runs
TTITLE6=Caledonia
TTITLE7=The wolf
TTITLE8=Grow your flowers
TTITLE9=Nobody wants to be alone nobody wants to die
EXTD=
EXTT0=
EXTT1=
EXTT2=
EXTT3=
EXTT4=
EXTT5=
EXTT6=
EXTT7=
EXTT8=
EXTT9=
PLAYORDER=
